<?xml version="1.0" encoding="utf-8"?>
<!-- Generator: Adobe Illustrator 16.0.0, SVG Export Plug-In . SVG Version: 6.00 Build 0)  -->
<!DOCTYPE svg PUBLIC "-//W3C//DTD SVG 1.0//EN" "http://www.w3.org/TR/2001/REC-SVG-20010904/DTD/svg10.dtd">
<svg version="1.0" id="Layer_1" xmlns="http://www.w3.org/2000/svg" xmlns:xlink="http://www.w3.org/1999/xlink" x="0px" y="0px"
	 width="1651.523px" height="1259.829px" viewBox="0 0 1651.523 1259.829" enable-background="new 0 0 1651.523 1259.829"
	 xml:space="preserve">
<path fill-rule="evenodd" clip-rule="evenodd" fill="#27235D" d="M819.257,1044.273c-1.333,0-2.667,0-4,0
	c-0.9-0.674-1.703-1.668-2.714-1.973c-18.859-5.697-31.905-17.559-36.477-36.877c-1.645-6.951-5.385-10.271-10.934-13.139
	c-36.066-18.637-72.107-37.324-108.146-56.016c-16.038-8.318-32.042-16.701-48.076-25.027
	c-36.47-18.938-72.958-37.838-109.419-56.793c-17.771-9.24-35.495-18.568-53.24-27.855c0-203.879,0-407.758,0-611.637
	c4.389-2.254,8.809-4.448,13.159-6.774c13.806-7.38,27.581-14.817,41.376-22.215c10.063-5.396,20.133-10.774,30.209-16.141
	c10.067-5.361,20.135-10.724,30.225-16.04c12.681-6.681,25.407-13.273,38.072-19.981c15.791-8.364,31.518-16.846,47.311-25.205
	c13.238-7.007,26.545-13.885,39.797-20.866c11.414-6.013,22.762-12.149,34.196-18.122c12.129-6.336,24.377-12.445,36.475-18.839
	c10.354-5.472,20.528-11.28,30.854-16.804c10.462-5.597,21.128-10.824,31.466-16.638c3.914-2.202,7.207-2.624,11.146-0.508
	c11.848,6.362,23.822,12.486,35.666,18.853c15.333,8.243,30.556,16.689,45.886,24.938c11.975,6.443,24.029,12.739,36.068,19.063
	c11.173,5.869,22.394,11.646,33.553,17.541c12.338,6.517,24.588,13.201,36.955,19.664c12.816,6.699,25.8,13.081,38.577,19.853
	c15.914,8.435,31.667,17.174,47.538,25.692c12.264,6.582,24.577,13.072,36.914,19.517c11.461,5.987,22.998,11.827,34.47,17.793
	c9.726,5.058,19.406,10.203,29.107,15.311c-0.005,202.24-0.008,404.477-0.024,606.715c0,2.826-0.171,5.652-0.262,8.479
	c-15.151,7.832-30.285,15.693-45.457,23.484c-17.245,8.857-34.514,17.666-51.789,26.463c-19.49,9.926-39.007,19.799-58.497,29.725
	c-15.056,7.668-30.078,15.398-45.132,23.068c-18.601,9.479-37.212,18.938-55.83,28.381c-21.872,11.094-43.706,22.266-65.687,33.143
	c-3.673,1.816-5.467,4.227-6.253,8.006c-4.336,20.844-17.412,33.5-37.347,39.732c-1.024,0.32-1.83,1.34-2.737,2.033
	c-1.333,0-2.667,0-4,0c-1,0-2,0-3,0c-2.333,0-4.667,0-7,0C821.257,1044.273,820.257,1044.273,819.257,1044.273z M608.167,654.443
	c8.001,3.34,16.001,6.678,24.001,10.016c14.028,5.898,28.057,11.795,42.084,17.691c4.703,2.078,9.406,4.154,14.109,6.232
	c0.369-0.418,0.738-0.836,1.107-1.254c-3.042-7.9-6.084-15.801-9.126-23.701c-1.729-8.775-3.46-17.551-5.19-26.326
	c-0.146-8.74-0.293-17.482-0.44-26.225c1.294-8.396,2.587-16.793,3.88-25.191c2.262-7.148,4.521-14.299,6.783-21.447
	c3.374-6.432,6.748-12.863,10.123-19.295c3.574-5.234,7.149-10.469,10.725-15.703c6.389-6.66,12.777-13.321,19.166-19.982
	c7.298-5.283,14.596-10.566,21.894-15.85c9.051-4.296,18.102-8.592,27.153-12.887c10.284-2.447,20.569-4.895,30.854-7.342
	c12.331-0.13,24.663-0.26,36.994-0.39c9.537,2.034,19.074,4.068,28.611,6.103c9.772,4.022,19.545,8.045,29.316,12.067
	c7.315,4.906,14.63,9.813,21.944,14.721c6.385,6.277,12.769,12.555,19.152,18.833c4.289,5.613,8.579,11.229,12.868,16.842
	c3.055,5.695,6.11,11.389,9.165,17.084c2.694,7.027,5.388,14.055,8.082,21.084c1.74,9.256,3.48,18.512,5.221,27.77
	c0.217,7.295,0.434,14.592,0.65,21.889c-1.215,8.031-2.43,16.063-3.645,24.094c-3.194,10.18-6.389,20.361-9.725,30.994
	c5.241-2.322,10.328-4.576,15.416-6.83c14.622-6.059,29.245-12.115,43.867-18.172c7.999-3.32,15.997-6.639,23.995-9.957
	c9.362-3.752,18.635-7.756,28.121-11.164c5.718-2.053,9.401-5.859,12.205-10.908c7.217-10.643,14.433-21.285,21.649-31.928
	c7.205-14.295,14.41-28.59,21.616-42.883c7.677-17.867,13.493-36.313,17.232-55.405c1.583-8.486,3.727-16.915,4.62-25.475
	c1.356-12.997,1.846-26.085,2.704-39.134c0.036-6.927,0.298-13.862,0.065-20.78c-0.641-19.063-2.899-37.934-7.403-56.5
	c-5.001-23.925-12.666-46.946-23.371-68.938c-2.414-5.058-4.639-10.218-7.276-15.157c-9.61-17.995-20.365-35.25-33.611-50.85
	c-5.916-6.949-11.295-14.462-17.862-20.728c-12.952-12.357-26.564-24.022-39.903-35.974c-10.069-7.011-19.725-14.741-30.313-20.851
	c-13.023-7.516-26.827-13.681-40.293-20.43c-13.029-4.75-25.815-10.396-39.152-14.014c-15.429-4.186-31.342-6.585-47.045-9.761
	c-19.202-3.213-38.567-3.789-57.938-2.774c-11.011,0.577-21.96,2.321-32.938,3.539c-13.924,2.776-28.103,4.666-41.702,8.571
	c-14.552,4.179-28.558,10.256-42.802,15.505c-10.111,4.917-20.701,9.061-30.224,14.932c-14.511,8.946-28.283,19.088-42.369,28.722
	c-21.487,16.421-40.229,35.553-56.451,57.171c-8.439,12.428-17.346,24.57-25.161,37.379c-5.55,9.098-9.628,19.093-14.363,28.688
	c-3.391,8.096-7.438,15.988-10.025,24.333c-4.509,14.547-8.117,29.374-12.104,44.083c-0.279,0.564-0.694,1.101-0.818,1.698
	c-4.605,22.167-6.534,44.605-6.654,67.215c-0.014,2.44,0.445,4.882,0.684,7.323c0.316,7.807,0.036,15.694,1.078,23.402
	c1.82,13.456,4.453,26.802,6.746,40.194c1.718,7.369,2.902,14.916,5.275,22.068c3.88,11.69,8.533,23.126,12.859,34.669
	c7.066,14,14.133,27.998,21.199,41.996c8.178,11.764,16.355,23.527,24.533,35.289c2.643,2.922,4.74,6.986,8.028,8.551
	C586.511,645.975,597.424,650.029,608.167,654.443z M822.767,988.666c-0.524-39.627-0.682-78.1-1.67-116.549
	c-0.61-23.732-10.639-43.564-27.976-59.779c-17.325-16.203-37.68-27.652-58.717-38.139c-25.516-12.721-51.33-24.924-76.283-38.68
	c-60.441-33.318-119.963-68.318-181.993-98.703c-8.116-3.977-16.265-7.887-25.753-12.486c0,55.906-0.033,110.525,0.158,165.145
	c0.006,1.674,1.994,4.025,3.666,4.908c105.608,55.775,211.279,111.43,316.945,167.094
	C787.979,970.346,804.817,979.213,822.767,988.666z M1200.457,624.814c-2.764,1.246-4.708,2.074-6.61,2.988
	c-50.133,24.088-98.894,50.758-147.42,77.902c-34.763,19.445-69.869,38.279-104.968,57.117
	c-18.845,10.113-38.354,19.033-56.899,29.648c-16.414,9.396-30.619,21.76-41.263,37.787c-10.975,16.525-13.41,35.213-13.618,54.318
	c-0.37,33.99-0.299,67.988-0.396,101.982c-0.001,0.412,0.212,0.826,0.401,1.521c1.235-0.625,2.248-1.123,3.247-1.648
	c41.109-21.641,82.223-43.273,123.326-64.926c80.306-42.303,160.592-84.645,240.957-126.834c3.237-1.699,4.012-3.643,3.983-6.977
	c-0.32-37.65-0.543-75.299-0.728-112.949C1200.39,658.42,1200.457,642.094,1200.457,624.814z"/>
<path fill-rule="evenodd" clip-rule="evenodd" fill="#4C457A" d="M1206.257,830.273c-0.421-0.012-0.842-0.023-1.268-0.035
	c0.087-2.826,0.258-5.652,0.258-8.479c0.017-202.238,0.02-404.475,0.024-606.715c0.328,0.075,0.657,0.152,0.985,0.229
	C1206.257,420.273,1206.257,625.273,1206.257,830.273z"/>
<path fill-rule="evenodd" clip-rule="evenodd" fill="#4C457A" d="M446.252,826.594c-0.332-0.107-0.664-0.215-0.995-0.32
	c0-203.668,0-407.333,0-611c0.331-0.103,0.663-0.206,0.995-0.313C446.252,418.835,446.252,622.715,446.252,826.594z"/>
<path fill-rule="evenodd" clip-rule="evenodd" fill="#010101" d="M819.257,1044.273c1,0,2,0,3,0
	C821.257,1044.273,820.257,1044.273,819.257,1044.273z"/>
<path fill-rule="evenodd" clip-rule="evenodd" fill="#010101" d="M829.257,1044.273c1,0,2,0,3,0
	C831.257,1044.273,830.257,1044.273,829.257,1044.273z"/>
<path fill-rule="evenodd" clip-rule="evenodd" fill="#FEFEFE" d="M822.767,988.666c-17.949-9.453-34.787-18.32-51.622-27.189
	c-105.666-55.664-211.337-111.318-316.945-167.094c-1.672-0.883-3.66-3.234-3.666-4.908c-0.191-54.619-0.158-109.238-0.158-165.145
	c9.488,4.6,17.637,8.51,25.753,12.486c62.03,30.385,121.552,65.385,181.993,98.703c24.953,13.756,50.768,25.959,76.283,38.68
	c21.037,10.486,41.392,21.936,58.717,38.139c17.337,16.215,27.365,36.047,27.976,59.779
	C822.085,910.566,822.242,949.039,822.767,988.666z"/>
<path fill-rule="evenodd" clip-rule="evenodd" fill="#FEFEFE" d="M1200.457,624.814c0,17.279-0.067,33.605,0.014,49.932
	c0.185,37.65,0.407,75.299,0.728,112.949c0.028,3.334-0.746,5.277-3.983,6.977c-80.365,42.189-160.651,84.531-240.957,126.834
	c-41.104,21.652-82.217,43.285-123.326,64.926c-0.999,0.525-2.012,1.023-3.247,1.648c-0.189-0.695-0.402-1.109-0.401-1.521
	c0.097-33.994,0.025-67.992,0.396-101.982c0.208-19.105,2.644-37.793,13.618-54.318c10.644-16.027,24.849-28.391,41.263-37.787
	c18.546-10.615,38.055-19.535,56.899-29.648c35.099-18.838,70.205-37.672,104.968-57.117c48.526-27.145,97.287-53.814,147.42-77.902
	C1195.749,626.889,1197.693,626.061,1200.457,624.814z"/>
<path fill-rule="evenodd" clip-rule="evenodd" fill="#FEFCFC" d="M778.311,99.198c10.978-1.218,21.927-2.962,32.938-3.539
	c19.37-1.015,38.735-0.439,57.938,2.773c-0.644,9.595-1.317,19.188-1.923,28.785c-1.274,20.181-2.591,40.359-3.741,60.547
	c-0.934,16.388-1.648,32.789-2.461,49.184c-0.312,0.923-0.624,1.846-0.936,2.769c-24.839-2.772-49.645-2.755-74.408,0.865
	c-0.437-6.124-0.983-12.242-1.292-18.372C782.358,181.208,780.343,140.202,778.311,99.198z"/>
<path fill-rule="evenodd" clip-rule="evenodd" fill="#A91F36" d="M861.061,236.948c0.813-16.395,1.527-32.795,2.461-49.184
	c1.15-20.188,2.467-40.367,3.741-60.547c0.605-9.597,1.279-19.19,1.923-28.785c15.703,3.176,31.616,5.576,47.045,9.761
	c13.337,3.618,26.123,9.264,39.152,14.014c-10.104,44.672-20.208,89.344-30.313,134.017c-4.229-1.348-8.404-2.915-12.7-4.005
	c-15.817-4.018-31.69-7.815-47.49-11.9C863.414,239.939,862.325,238.106,861.061,236.948z"/>
<path fill-rule="evenodd" clip-rule="evenodd" fill="#A91F36" d="M778.311,99.198c2.032,41.004,4.048,82.01,6.114,123.013
	c0.309,6.13,0.855,12.248,1.292,18.371c-0.184,0.111-0.338,0.253-0.464,0.426c-16.309,4.079-32.674,7.948-48.892,12.36
	c-4.979,1.354-9.552,4.195-14.311,6.355c-0.296-0.134-0.576-0.295-0.841-0.483c-0.071-0.992-0.03-2.006-0.228-2.972
	c-9.046-44.334-18.112-88.663-27.176-132.993c14.244-5.249,28.25-11.327,42.802-15.505
	C750.208,103.864,764.387,101.974,778.311,99.198z"/>
<path fill-rule="evenodd" clip-rule="evenodd" fill="#FEFDFD" d="M693.807,123.274c9.063,44.33,18.13,88.659,27.176,132.993
	c0.197,0.966,0.156,1.98,0.228,2.972c-5.849,2.742-11.972,5.023-17.489,8.317c-12.937,7.725-25.584,15.935-38.348,23.948
	c-7.387-20.933-14.749-41.874-22.165-62.795c-7.304-20.604-14.661-41.188-21.994-61.781c14.086-9.634,27.858-19.776,42.369-28.722
	C673.105,132.335,683.695,128.191,693.807,123.274z"/>
<path fill-rule="evenodd" clip-rule="evenodd" fill="#FEFDFD" d="M925.07,256.224c10.104-44.672,20.208-89.344,30.313-134.017
	c13.466,6.749,27.27,12.914,40.293,20.429c10.589,6.11,20.244,13.84,30.313,20.85c-5.067,12.954-10.184,25.89-15.191,38.868
	c-10.613,27.506-21.171,55.033-31.752,82.552c-0.319,0.244-0.639,0.488-0.958,0.732c-1.679-1.059-3.377-2.087-5.03-3.182
	c-15.088-9.985-30.773-18.838-47.741-25.269C925.261,256.86,925.179,256.539,925.07,256.224z"/>
<path fill-rule="evenodd" clip-rule="evenodd" fill="#A91F36" d="M979.046,284.906c10.581-27.518,21.139-55.045,31.752-82.551
	c5.008-12.978,10.124-25.914,15.191-38.868c13.339,11.953,26.951,23.618,39.903,35.975c6.567,6.266,11.946,13.779,17.86,20.729
	c-11.297,20.257-22.612,40.502-33.881,60.774c-8.605,15.482-17.15,30.999-25.723,46.5c-0.246,0.031-0.492,0.065-0.738,0.101
	c-0.236-0.435-0.413-0.918-0.719-1.298c-10.859-13.524-24.103-24.488-37.634-35.162
	C982.818,289.339,981.039,286.988,979.046,284.906z"/>
<path fill-rule="evenodd" clip-rule="evenodd" fill="#AA1F36" d="M621.214,166.928c7.333,20.593,14.69,41.178,21.994,61.781
	c7.416,20.922,14.778,41.863,22.165,62.795c-0.102,0.209-0.163,0.43-0.184,0.661c-14.447,11.091-27.746,23.402-39.549,37.291
	c-1.031,1.212-1.685,2.744-2.514,4.127c-0.264-0.05-0.529-0.088-0.795-0.117c-0.674-1.322-1.332-2.652-2.023-3.965
	c-18.514-35.135-37.029-70.269-55.546-105.402C580.985,202.481,599.727,183.35,621.214,166.928z"/>
<path fill-rule="evenodd" clip-rule="evenodd" fill="#FEFCFC" d="M1024.149,327.466c8.572-15.501,17.117-31.018,25.723-46.5
	c11.269-20.272,22.584-40.517,33.881-60.774c13.248,15.599,24.003,32.854,33.613,50.849c2.638,4.939,4.862,10.099,7.276,15.157
	c-4.459,5.8-8.962,11.567-13.368,17.406c-17.722,23.483-35.413,46.988-53.116,70.486c-0.274,0.042-0.55,0.083-0.824,0.12
	C1047.709,357.608,1037.085,341.717,1024.149,327.466z"/>
<path fill-rule="evenodd" clip-rule="evenodd" fill="#FEFCFC" d="M564.763,224.1c18.517,35.134,37.032,70.267,55.546,105.402
	c0.691,1.313,1.35,2.643,2.023,3.964c-10.355,15.34-20.711,30.681-31.066,46.021c-4.633-6.044-9.369-12.012-13.879-18.146
	c-17.422-23.696-34.771-47.446-52.148-71.175c4.735-9.595,8.813-19.59,14.363-28.688C547.417,248.67,556.323,236.527,564.763,224.1z
	"/>
<path fill-rule="evenodd" clip-rule="evenodd" fill="#A91F37" d="M1058.158,374.089c17.703-23.498,35.395-47.003,53.116-70.486
	c4.406-5.839,8.909-11.606,13.368-17.406c10.705,21.991,18.37,45.012,23.372,68.937c-6.422,6.246-12.869,12.465-19.262,18.742
	c-16.815,16.512-33.606,33.049-50.408,49.576c-6.414-15.187-12.84-30.369-19.217-45.571
	C1058.628,376.69,1058.473,375.356,1058.158,374.089z"/>
<path fill-rule="evenodd" clip-rule="evenodd" fill="#A91F37" d="M525.238,290.167c17.377,23.729,34.727,47.479,52.148,71.175
	c4.51,6.134,9.246,12.102,13.879,18.146c-0.039,0.178-0.051,0.358-0.037,0.54c-4.005,8.957-8.176,17.845-11.963,26.893
	c-2.939,7.024-5.402,14.249-8.078,21.385c-1.236-1.078-2.559-2.074-3.697-3.248c-21.474-22.146-42.926-44.313-64.381-66.475
	c3.986-14.709,7.595-29.536,12.104-44.083C517.801,306.154,521.848,298.263,525.238,290.167z"/>
<path fill-rule="evenodd" clip-rule="evenodd" fill="#FDFBFB" d="M1078.345,423.452c16.802-16.527,33.593-33.064,50.408-49.576
	c6.393-6.276,12.84-12.496,19.262-18.742c4.503,18.566,6.762,37.437,7.402,56.5c0.232,6.918-0.029,13.853-0.065,20.779
	c-6.092,3.358-12.184,6.718-18.278,10.074c-16.256,8.951-32.512,17.9-48.769,26.851c-3.332-15.018-6.665-30.035-9.997-45.053
	C1078.419,424.012,1078.432,423.734,1078.345,423.452z"/>
<path fill-rule="evenodd" clip-rule="evenodd" fill="#FDFBFB" d="M503.109,358.583c21.455,22.163,42.907,44.329,64.381,66.475
	c1.139,1.174,2.461,2.169,3.697,3.248c0.084,0.302,0.191,0.595,0.325,0.879c-3.06,15.64-6.118,31.279-9.177,46.919l-0.139,0.203
	c-4.771-2.961-9.561-5.891-14.309-8.888c-17.197-10.854-34.38-21.731-51.568-32.601c-0.238-2.441-0.697-4.883-0.684-7.323
	c0.12-22.609,2.049-45.047,6.654-67.215C502.415,359.684,502.83,359.147,503.109,358.583z"/>
<path fill-rule="evenodd" clip-rule="evenodd" fill="#A91F37" d="M1088.305,469.338c16.257-8.95,32.513-17.899,48.769-26.851
	c6.095-3.355,12.187-6.716,18.278-10.074c-0.858,13.049-1.348,26.137-2.704,39.134c-0.894,8.56-3.037,16.988-4.62,25.476
	c-0.937,0.307-1.882,0.59-2.811,0.922c-18.284,6.53-36.566,13.066-54.851,19.602c-0.719-15.854-1.438-31.707-2.156-47.561
	C1088.25,469.771,1088.281,469.555,1088.305,469.338z"/>
<path fill-rule="evenodd" clip-rule="evenodd" fill="#A91F37" d="M496.32,434.818c17.188,10.869,34.371,21.746,51.568,32.601
	c4.748,2.997,9.537,5.927,14.31,8.888c-0.032,15.428-0.065,30.854-0.099,46.282c-19.318-8.058-38.637-16.116-57.955-24.174
	c-2.293-13.393-4.926-26.738-6.746-40.194C496.356,450.513,496.637,442.625,496.32,434.818z"/>
<path fill-rule="evenodd" clip-rule="evenodd" fill="#EFB21F" d="M842.283,472.79c-12.331,0.13-24.663,0.26-36.994,0.39
	c-0.87-7.752-1.834-15.495-2.589-23.259c-1.155-11.887-2.165-23.788-3.236-35.684c15.891-2.377,31.813-2.589,47.769-0.718
	c-0.511,7.25-0.935,14.507-1.553,21.747C844.611,447.78,843.422,460.282,842.283,472.79z"/>
<path fill-rule="evenodd" clip-rule="evenodd" fill="#FDFBFA" d="M1090.367,517.547c18.283-6.535,36.565-13.071,54.85-19.602
	c0.929-0.332,1.874-0.615,2.811-0.922c-3.739,19.091-9.556,37.537-17.231,55.402c-2.249,0.479-4.496,0.965-6.747,1.436
	c-13.354,2.787-26.708,5.572-40.062,8.357c1.907-14.635,3.813-29.271,5.721-43.905
	C1089.928,518.058,1090.147,517.802,1090.367,517.547z"/>
<path fill-rule="evenodd" clip-rule="evenodd" fill="#FDFBFA" d="M504.145,498.415c19.318,8.058,38.637,16.116,57.956,24.175
	c-0.144,0.282-0.097,0.527,0.142,0.736c2.145,14.336,4.291,28.672,6.436,43.008c-1.459-0.264-2.937-0.453-4.374-0.805
	c-14.012-3.443-28.017-6.914-42.024-10.377c-4.326-11.543-8.979-22.979-12.859-34.669
	C507.047,513.331,505.862,505.784,504.145,498.415z"/>
<path fill-rule="evenodd" clip-rule="evenodd" fill="#BD4E53" d="M799.464,414.238c1.071,11.895,2.081,23.796,3.236,35.683
	c0.755,7.764,1.719,15.507,2.589,23.259c-10.284,2.447-20.569,4.895-30.854,7.341c-5.221-17.948-10.441-35.895-15.66-53.843
	c2.845-1.305,5.577-2.993,8.55-3.842c10.6-3.029,21.281-5.773,31.931-8.625L799.464,414.238z"/>
<path fill-rule="evenodd" clip-rule="evenodd" fill="#BD4E53" d="M842.283,472.79c1.139-12.508,2.328-25.01,3.396-37.523
	c0.618-7.24,1.042-14.498,1.553-21.747c0.184-0.3,0.45-0.473,0.798-0.52c0.543,0.36,1.039,0.905,1.635,1.055
	c11.227,2.826,22.457,5.637,33.711,8.347c1.16,0.279,2.478-0.1,3.723-0.173c0.058,0.577,0.116,1.153,0.175,1.73
	c-5.46,18.312-10.919,36.623-16.379,54.935C861.357,476.858,851.82,474.824,842.283,472.79z"/>
<path fill-rule="evenodd" clip-rule="evenodd" fill="#EFB21F" d="M870.895,478.893c5.46-18.312,10.919-36.623,16.379-54.934
	c11.616,6.122,23.23,12.243,34.846,18.364c0.098,0.301,0.183,0.605,0.254,0.914c-1.582,3.462-3.145,6.933-4.751,10.384
	c-5.796,12.45-11.605,24.893-17.411,37.338C890.439,486.938,880.667,482.915,870.895,478.893z"/>
<path fill-rule="evenodd" clip-rule="evenodd" fill="#EFB21F" d="M758.773,426.679c5.221,17.947,10.441,35.894,15.662,53.842
	c-9.052,4.296-18.103,8.592-27.153,12.888c-0.959-1.726-2.016-3.405-2.861-5.186c-6.685-14.072-13.33-28.164-19.986-42.247
	c0.001,0.003,0.174-0.438,0.174-0.438c11.202-6.399,22.403-12.799,33.604-19.198C758.407,426.44,758.595,426.553,758.773,426.679z"
	/>
<path fill-rule="evenodd" clip-rule="evenodd" fill="#BD4E53" d="M900.211,490.96c5.806-12.446,11.615-24.889,17.411-37.339
	c1.606-3.451,3.169-6.922,4.751-10.384c7.565,6.107,15.114,12.235,22.709,18.307c1.77,1.415,3.693,2.638,5.546,3.948
	c-0.085,0.506-0.169,1.013-0.254,1.519c-5.097,7.201-10.123,14.454-15.313,21.587c-4.198,5.77-8.596,11.394-12.905,17.083
	C914.841,500.773,907.526,495.866,900.211,490.96z"/>
<path fill-rule="evenodd" clip-rule="evenodd" fill="#A91F37" d="M1083.987,562.219c13.354-2.785,26.708-5.57,40.062-8.357
	c2.251-0.471,4.498-0.957,6.747-1.436c-7.207,14.295-14.412,28.59-21.617,42.885c-11.551,1.059-23.102,2.115-34.652,3.174
	c0.121-2.115-0.114-4.324,0.424-6.328c2.615-9.742,5.438-19.432,8.188-29.139C1083.421,562.752,1083.704,562.484,1083.987,562.219z"
	/>
<path fill-rule="evenodd" clip-rule="evenodd" fill="#BD4E53" d="M724.434,445.973c6.657,14.086,13.303,28.178,19.987,42.25
	c0.846,1.78,1.902,3.46,2.861,5.186c-7.298,5.283-14.596,10.566-21.894,15.85c-8.873-13.331-17.745-26.663-26.617-39.995
	c-0.017-0.264,0.021-0.52,0.111-0.767C707.4,460.988,715.916,453.48,724.434,445.973z"/>
<path fill-rule="evenodd" clip-rule="evenodd" fill="#A91F37" d="M522.279,555.152c14.008,3.463,28.013,6.934,42.024,10.377
	c1.438,0.352,2.915,0.541,4.374,0.807c0.174,0.273,0.354,0.541,0.541,0.807c3.34,11.021,6.678,22.041,10.018,33.061
	c-11.92-1.018-23.838-2.037-35.758-3.055C536.412,583.15,529.346,569.152,522.279,555.152z"/>
<path fill-rule="evenodd" clip-rule="evenodd" fill="#EFB21F" d="M698.771,469.263c8.872,13.332,17.744,26.664,26.617,39.995
	c-6.389,6.661-12.777,13.322-19.166,19.982c-0.723-0.898-1.447-1.795-2.166-2.697c-8.296-10.438-16.591-20.877-24.887-31.315
	C685.704,486.573,692.237,477.918,698.771,469.263z"/>
<path fill-rule="evenodd" clip-rule="evenodd" fill="#EFB21F" d="M922.155,505.681c4.31-5.689,8.707-11.313,12.905-17.083
	c5.19-7.133,10.217-14.386,15.313-21.587c6.601,8.197,13.2,16.395,19.8,24.591c-0.07,0.514-0.141,1.028-0.212,1.542
	c-1.903,2.052-3.823,4.089-5.708,6.157c-7.654,8.399-15.299,16.808-22.946,25.213C934.924,518.235,928.54,511.958,922.155,505.681z"
	/>
<path fill-rule="evenodd" clip-rule="evenodd" fill="#FDFBFA" d="M543.479,597.148c11.92,1.018,23.838,2.037,35.758,3.055
	c0.043,0.234,0.182,0.336,0.418,0.303c4.877,10.541,9.754,21.082,14.631,31.623c-8.758,0.104-17.516,0.207-26.273,0.309
	C559.834,620.676,551.656,608.912,543.479,597.148z"/>
<path fill-rule="evenodd" clip-rule="evenodd" fill="#BC4F53" d="M941.308,524.514c7.647-8.405,15.292-16.813,22.946-25.213
	c1.885-2.068,3.805-4.105,5.709-6.157c1.03,1.216,2.265,2.312,3.054,3.667c3.603,6.188,7.079,12.448,10.602,18.682
	c-0.066,0.345-0.132,0.688-0.197,1.032c-9.748,8.277-19.497,16.554-29.245,24.831C949.887,535.742,945.597,530.127,941.308,524.514z
	"/>
<path fill-rule="evenodd" clip-rule="evenodd" fill="#FBF7F7" d="M1074.526,598.484c11.551-1.059,23.102-2.115,34.652-3.174
	c-7.217,10.643-14.433,21.285-21.65,31.928c-9.158-0.029-18.315-0.059-27.473-0.088c4.067-9.252,8.134-18.502,12.2-27.754
	C1073.013,599.092,1073.77,598.789,1074.526,598.484z"/>
<path fill-rule="evenodd" clip-rule="evenodd" fill="#A91F37" d="M1023.208,659.268c-14.622,6.057-29.245,12.113-43.868,18.172
	c1.508-3.111,3.282-6.125,4.468-9.354c2.307-6.279,4.282-12.68,6.395-19.031c0.529-0.307,1.059-0.615,1.587-0.924
	c13.749-3.689,27.498-7.379,41.248-11.068c-0.131,1.461,0.146,3.125-0.462,4.348
	C1029.582,647.426,1026.354,653.326,1023.208,659.268z"/>
<path fill-rule="evenodd" clip-rule="evenodd" fill="#A91F37" d="M674.252,682.15c-14.027-5.896-28.056-11.793-42.083-17.691
	c-3.499-5.84-7.081-11.633-10.437-17.555c-0.797-1.406-0.83-3.244-1.214-4.883c13.245,3.107,26.491,6.213,39.735,9.32l-0.07-0.068
	c0.337,0.291,0.674,0.582,1.011,0.873c0.349,0.389,0.698,0.777,1.046,1.166C666.244,662.924,670.248,672.537,674.252,682.15z"/>
<path fill-rule="evenodd" clip-rule="evenodd" fill="#BC4F53" d="M679.17,495.229c8.296,10.438,16.591,20.877,24.887,31.314
	c0.719,0.902,1.443,1.799,2.166,2.697c-3.575,5.234-7.15,10.469-10.726,15.705c-9.542-8.553-19.083-17.109-28.621-25.665
	c1.224-2.544,2.456-5.083,3.663-7.634c2.608-5.511,5.205-11.027,7.806-16.542C678.618,495.157,678.894,495.198,679.17,495.229z"/>
<path fill-rule="evenodd" clip-rule="evenodd" fill="#EEB11F" d="M666.873,519.28c9.541,8.556,19.082,17.112,28.624,25.665
	c-3.374,6.43-6.748,12.861-10.123,19.293c-9.062-6.273-18.121-12.547-27.182-18.82c-0.268-0.342-0.536-0.684-0.804-1.025
	c3.115-8.305,6.231-16.611,9.348-24.915L666.873,519.28z"/>
<path fill-rule="evenodd" clip-rule="evenodd" fill="#EFB21F" d="M954.176,541.355c9.748-8.277,19.497-16.554,29.245-24.83
	c2.981,7.974,5.964,15.945,8.945,23.918c0,0.219-0.008,0.438-0.023,0.654c-9.668,5.781-19.334,11.561-29.002,17.342
	C960.286,552.744,957.23,547.051,954.176,541.355z"/>
<path fill-rule="evenodd" clip-rule="evenodd" fill="#BC4F53" d="M963.341,558.439c9.668-5.781,19.334-11.561,29-17.338
	c1.989,8.783,3.979,17.564,5.97,26.346c0.042,0.266-0.015,0.508-0.168,0.727c-1.689,0.617-3.413,1.15-5.061,1.863
	c-7.231,3.135-14.441,6.318-21.659,9.486C968.729,572.494,966.035,565.467,963.341,558.439z"/>
<path fill-rule="evenodd" clip-rule="evenodd" fill="#EEB11F" d="M971.423,579.523c7.218-3.168,14.428-6.352,21.659-9.486
	c1.647-0.713,3.371-1.246,5.06-1.861c0.531,8.99,1.062,17.98,1.592,26.971c-0.214,0.314-0.428,0.629-0.641,0.943
	c-7.483,3.734-14.966,7.469-22.449,11.203C974.903,598.035,973.163,588.779,971.423,579.523z"/>
<path fill-rule="evenodd" clip-rule="evenodd" fill="#EEB11F" d="M678.592,585.686c-1.293,8.398-2.586,16.795-3.876,25.188
	c-7.437-3.947-14.876-7.891-22.316-11.832c-0.186-0.295-0.37-0.588-0.556-0.881c0.516-9.941,1.031-19.881,1.547-29.82
	C661.791,574.123,670.191,579.904,678.592,585.686z"/>
<path fill-rule="evenodd" clip-rule="evenodd" fill="#BC4F53" d="M678.592,585.686c-8.4-5.781-16.801-11.563-25.201-17.346
	c-0.195-0.252-0.27-0.537-0.221-0.852c1.674-7.357,3.349-14.713,5.022-22.07c9.061,6.273,18.12,12.547,27.182,18.82
	C683.113,571.387,680.854,578.537,678.592,585.686z"/>
<path fill-rule="evenodd" clip-rule="evenodd" fill="#BC4F53" d="M652.4,599.041c7.439,3.941,14.879,7.885,22.315,11.832
	c0.144,8.746,0.29,17.488,0.438,26.23c-6.777-3.807-13.556-7.617-20.329-11.422c-0.221-0.32-0.447-0.646-0.674-0.973
	C653.567,616.152,652.983,607.598,652.4,599.041z"/>
<path fill-rule="evenodd" clip-rule="evenodd" fill="#BC4F53" d="M976.644,607.293c7.483-3.734,14.966-7.469,22.45-11.203
	c-0.237,5.611-0.603,11.223-0.647,16.836c-0.018,2.191,0.686,4.387,1.061,6.58c-0.573,0.311-1.146,0.619-1.72,0.93
	c-6.831,2.916-13.662,5.83-20.493,8.746C977.077,621.885,976.86,614.588,976.644,607.293z"/>
<path fill-rule="evenodd" clip-rule="evenodd" fill="#ECB021" d="M977.294,629.182c6.831-2.916,13.662-5.83,20.492-8.746
	c-1.999,9.232-3.997,18.465-5.996,27.695c-0.529,0.309-1.059,0.617-1.588,0.926c-5.518,1.406-11.035,2.813-16.553,4.219
	C974.864,645.244,976.079,637.213,977.294,629.182z"/>
<path fill-rule="evenodd" clip-rule="evenodd" fill="#ECB021" d="M654.82,625.678c6.777,3.809,13.556,7.619,20.333,11.426
	c1.729,8.773,3.46,17.549,5.19,26.324c-6.034-3.373-12.068-6.744-18.104-10.115c-0.348-0.389-0.697-0.777-1.046-1.166
	c-0.337-0.291-0.674-0.582-1.011-0.873l0.07,0.068c-0.212-1.537-0.32-3.1-0.655-4.609
	C658.04,639.705,656.419,632.693,654.82,625.678z"/>
<path fill-rule="evenodd" clip-rule="evenodd" fill="#BB4D53" d="M973.649,653.275c5.518-1.406,11.035-2.813,16.553-4.219
	c-2.112,6.35-4.088,12.75-6.395,19.029c-1.186,3.229-2.96,6.242-4.468,9.354c-5.087,2.254-10.174,4.508-15.415,6.83
	C967.261,673.637,970.455,663.455,973.649,653.275z"/>
<path fill-rule="evenodd" clip-rule="evenodd" fill="#BB4D53" d="M1023.208,659.268c3.146-5.941,6.374-11.842,9.367-17.857
	c0.608-1.223,0.331-2.887,0.461-4.348c0.815-0.521,1.633-1.045,2.449-1.568c1.919-0.469,3.893-0.785,5.748-1.438
	c6.085-2.139,12.128-4.398,18.188-6.611c-4.073,7.289-8.146,14.576-12.218,21.865
	C1039.205,652.629,1031.207,655.947,1023.208,659.268z"/>
<path fill-rule="evenodd" clip-rule="evenodd" fill="#BB4D53" d="M620.518,642.021c0.385,1.639,0.418,3.477,1.215,4.883
	c3.355,5.922,6.938,11.715,10.437,17.555c-8.001-3.338-16.001-6.676-24.002-10.016c-4.192-7.188-8.386-14.377-12.581-21.566
	c7.727,2.756,15.455,5.51,23.184,8.264C619.352,641.434,619.936,641.727,620.518,642.021z"/>
<path fill-rule="evenodd" clip-rule="evenodd" fill="#A71E36" d="M1047.203,649.311c4.072-7.289,8.145-14.576,12.216-21.865
	c0.219-0.082,0.432-0.182,0.637-0.295c9.157,0.029,18.314,0.059,27.473,0.088c-2.803,5.049-6.486,8.855-12.204,10.908
	C1065.838,641.555,1056.565,645.559,1047.203,649.311z"/>
<path fill-rule="evenodd" clip-rule="evenodd" fill="#A71E36" d="M595.588,632.877c4.193,7.189,8.387,14.379,12.579,21.566
	c-10.743-4.414-21.656-8.469-32.127-13.455c-3.288-1.564-5.386-5.629-8.028-8.551c8.758-0.102,17.516-0.205,26.273-0.309
	C594.719,632.379,595.153,632.629,595.588,632.877z"/>
<path fill-rule="evenodd" clip-rule="evenodd" fill="#BB4D53" d="M662.24,653.313c6.035,3.371,12.069,6.742,18.104,10.115
	c3.041,7.9,6.083,15.801,9.125,23.701c-0.369,0.418-0.738,0.836-1.107,1.254c-4.703-2.078-9.406-4.154-14.109-6.232
	C670.248,672.537,666.244,662.924,662.24,653.313z"/>
<path fill-rule="evenodd" clip-rule="evenodd" fill="#F0B31F" d="M785.253,241.007c0.126-0.173,0.28-0.315,0.464-0.426
	c24.764-3.62,49.569-3.637,74.408-0.865c0.019,1.484,0.2,2.988,0.028,4.45c-1.487,12.631-3.014,25.259-4.581,37.881
	c-1.097,8.837-2.275,17.664-3.418,26.494c-19.19-1.806-38.358-1.944-57.49,0.75c-0.128-0.479-0.311-0.949-0.376-1.436
	C791.27,285.574,788.263,263.291,785.253,241.007z"/>
<path fill-rule="evenodd" clip-rule="evenodd" fill="#BD4E53" d="M852.154,308.542c1.143-8.832,2.321-17.658,3.418-26.495
	c1.567-12.622,3.094-25.25,4.581-37.881c0.172-1.462-0.01-2.966-0.028-4.45c0.312-0.922,0.624-1.845,0.936-2.768
	c1.265,1.158,2.354,2.991,3.819,3.37c15.8,4.085,31.673,7.883,47.49,11.9c4.296,1.091,8.471,2.657,12.7,4.005
	c0.108,0.315,0.19,0.636,0.246,0.964c-0.34,0.737-0.778,1.444-1.005,2.215c-6.067,20.705-12.112,41.417-18.162,62.125
	c-17.361-6.782-35.459-10.549-53.839-13.166L852.154,308.542z"/>
<path fill-rule="evenodd" clip-rule="evenodd" fill="#BD4E53" d="M785.253,241.007c3.01,22.283,6.017,44.566,9.035,66.848
	c0.065,0.487,0.248,0.958,0.376,1.436l-0.322,0.048c-1.307,0.13-2.661,0.085-3.914,0.418c-17.024,4.525-34.035,9.102-51.049,13.666
	c-2.213-7.799-4.506-15.577-6.621-23.403c-3.628-13.417-7.145-26.864-10.707-40.298c4.759-2.16,9.332-5,14.311-6.355
	C752.579,248.956,768.944,245.086,785.253,241.007z"/>
<path fill-rule="evenodd" clip-rule="evenodd" fill="#F0B31F" d="M722.051,259.723c3.563,13.435,7.079,26.881,10.707,40.298
	c2.115,7.826,4.408,15.604,6.621,23.402c-0.063,0.242-0.151,0.475-0.266,0.698c-16.762,6.238-32.108,15.104-46.783,25.213
	c-0.486-0.856-1.031-1.684-1.449-2.572c-8.572-18.195-17.131-36.396-25.691-54.597c0.021-0.231,0.082-0.452,0.184-0.661
	c12.764-8.013,25.411-16.223,38.348-23.948c5.518-3.294,11.641-5.576,17.489-8.317C721.475,259.428,721.755,259.588,722.051,259.723
	z"/>
<path fill-rule="evenodd" clip-rule="evenodd" fill="#F0B31F" d="M906.149,321.531c6.05-20.71,12.095-41.422,18.162-62.127
	c0.227-0.771,0.665-1.478,1.005-2.215c16.968,6.431,32.653,15.284,47.741,25.269c1.653,1.095,3.352,2.123,5.03,3.182
	c-2.945,7.556-5.746,15.171-8.868,22.653c-5.163,12.374-10.533,24.66-15.816,36.983c-14.848-9.472-30.289-17.757-46.988-23.531
	L906.149,321.531z"/>
<path fill-rule="evenodd" clip-rule="evenodd" fill="#BD4E53" d="M953.403,345.275c5.283-12.323,10.653-24.61,15.816-36.983
	c3.122-7.481,5.923-15.097,8.868-22.653c0.319-0.244,0.639-0.488,0.958-0.732c1.993,2.081,3.772,4.433,6.013,6.2
	c13.531,10.674,26.774,21.638,37.634,35.162c0.306,0.38,0.482,0.863,0.718,1.298c-2.81,4.468-5.559,8.974-8.438,13.396
	c-7.844,12.045-15.742,24.055-23.618,36.079c-0.341,0.122-0.682,0.244-1.022,0.366c-0.963-1.494-1.671-3.264-2.935-4.433
	c-5.852-5.41-11.641-10.927-17.877-15.87c-5.022-3.981-10.651-7.198-16.012-10.753C953.474,345.992,953.438,345.633,953.403,345.275
	z"/>
<path fill-rule="evenodd" clip-rule="evenodd" fill="#F0B31F" d="M991.354,377.041c7.876-12.024,15.774-24.033,23.618-36.079
	c2.88-4.422,5.629-8.928,8.438-13.396c0.247-0.036,0.493-0.069,0.739-0.101c12.936,14.251,23.56,30.142,33.185,46.743
	c-0.674,1.135-1.146,2.473-2.051,3.375c-11.657,11.615-23.376,23.167-35.079,34.735C1010.587,400.56,1000.971,388.8,991.354,377.041
	z"/>
<path fill-rule="evenodd" clip-rule="evenodd" fill="#BD4E53" d="M665.189,292.166c8.561,18.2,17.119,36.402,25.691,54.597
	c0.418,0.888,0.963,1.716,1.449,2.572c-0.002,0.334-0.063,0.659-0.182,0.971c-5.074,3.601-10.449,6.854-15.157,10.883
	c-7.531,6.445-14.621,13.406-21.897,20.149c-10.656-15.918-21.311-31.836-31.967-47.755c0.829-1.383,1.482-2.915,2.514-4.127
	C637.443,315.568,650.742,303.257,665.189,292.166z"/>
<path fill-rule="evenodd" clip-rule="evenodd" fill="#F0B31F" d="M623.127,333.583c10.656,15.918,21.311,31.837,31.967,47.755
	c0.004,0.303-0.023,0.602-0.082,0.899c-9.293,12.328-18.585,24.656-27.877,36.983c-11.969-13.064-23.938-26.129-35.906-39.193
	c-0.014-0.182-0.002-0.362,0.037-0.54c10.355-15.341,20.711-30.681,31.066-46.021C622.598,333.495,622.863,333.534,623.127,333.583z
	"/>
<path fill-rule="evenodd" clip-rule="evenodd" fill="#BD4E53" d="M1020.204,412.319c11.703-11.568,23.422-23.121,35.079-34.735
	c0.905-0.902,1.377-2.24,2.051-3.375c0.274-0.037,0.55-0.077,0.824-0.12c0.314,1.267,0.47,2.602,0.97,3.792
	c6.377,15.203,12.803,30.384,19.217,45.571c0.087,0.282,0.074,0.56-0.037,0.833c-12.717,8.752-25.433,17.504-38.148,26.254
	c-6.693-12.458-13.389-24.913-20.083-37.368C1020.126,412.888,1020.169,412.604,1020.204,412.319z"/>
<path fill-rule="evenodd" clip-rule="evenodd" fill="#BD4E53" d="M591.229,380.027c11.969,13.064,23.938,26.129,35.906,39.194
	c0.034,0.359,0.068,0.718,0.103,1.077c-2.423,3.873-5.165,7.586-7.202,11.652c-4.191,8.367-8.006,16.923-11.977,25.401
	c-12.182-9.389-24.363-18.778-36.546-28.167c-0.134-0.284-0.241-0.577-0.325-0.879c2.676-7.136,5.139-14.361,8.078-21.385
	C583.053,397.872,587.224,388.984,591.229,380.027z"/>
<path fill-rule="evenodd" clip-rule="evenodd" fill="#F0B31F" d="M1040.158,450.542c12.717-8.753,25.433-17.505,38.149-26.257
	c3.332,15.018,6.665,30.036,9.997,45.053c-0.023,0.217-0.055,0.433-0.096,0.649c-1.564,0.909-3.158,1.769-4.688,2.73
	c-10.318,6.482-20.624,12.986-30.934,19.483c-4.111-13.757-8.223-27.515-12.333-41.271L1040.158,450.542z"/>
<path fill-rule="evenodd" clip-rule="evenodd" fill="#F0B31F" d="M571.513,429.185c12.183,9.389,24.364,18.778,36.546,28.167
	c0.074,0.439,0.148,0.879,0.223,1.317c-3.426,12.821-6.851,25.643-10.275,38.463c-2.977-1.819-5.924-3.687-8.932-5.449
	c-8.9-5.215-17.824-10.389-26.738-15.579C565.395,460.464,568.453,444.824,571.513,429.185z"/>
<path fill-rule="evenodd" clip-rule="evenodd" fill="#BD4E53" d="M562.336,476.104c8.914,5.19,17.838,10.364,26.738,15.579
	c3.008,1.763,5.955,3.63,8.932,5.449c0.158,0.334,0.316,0.667,0.475,1c-0.354,0.544-0.977,1.064-1.023,1.634
	c-1.069,12.866-2.076,25.737-3.094,38.607c-0.307-0.119-0.623-0.219-0.92-0.357c-10.401-4.895-20.801-9.793-31.201-14.689
	c-0.238-0.209-0.285-0.454-0.142-0.736c0.032-15.429,0.065-30.855,0.098-46.283C562.197,476.307,562.336,476.104,562.336,476.104z"
	/>
<path fill-rule="evenodd" clip-rule="evenodd" fill="#BD4E53" d="M1052.587,492.201c10.31-6.497,20.615-13.001,30.934-19.483
	c1.53-0.962,3.124-1.821,4.688-2.73c0.72,15.853,1.438,31.706,2.157,47.56c-0.219,0.255-0.438,0.511-0.659,0.767
	c-2.263,0.949-4.629,1.706-6.768,2.879c-8.539,4.685-17.007,9.497-25.502,14.265c-0.4-6.9-0.427-13.847-1.302-20.686
	c-0.928-7.251-2.66-14.399-4.041-21.593C1052.259,492.854,1052.423,492.527,1052.587,492.201z"/>
<path fill-rule="evenodd" clip-rule="evenodd" fill="#FEFCFB" d="M794.664,309.292c19.132-2.694,38.3-2.557,57.49-0.75
	c0,0.001,0.156-0.179,0.156-0.179c-0.583,13.125-1.208,26.249-1.738,39.376c-0.88,21.753-1.697,43.508-2.542,65.262
	c-0.348,0.047-0.614,0.22-0.798,0.52c-15.955-1.872-31.878-1.659-47.769,0.718c0,0-0.208-0.027-0.207-0.027
	c-1.639-34.957-3.276-69.914-4.915-104.871L794.664,309.292z"/>
<path fill-rule="evenodd" clip-rule="evenodd" fill="#F0B31F" d="M1057.438,535.455c8.495-4.766,16.963-9.578,25.502-14.263
	c2.139-1.173,4.505-1.93,6.768-2.879c-1.906,14.634-3.813,29.271-5.72,43.905c-0.283,0.266-0.566,0.533-0.849,0.799
	c-2.409,0.615-4.86,1.098-7.219,1.867c-7.103,2.314-14.169,4.738-21.25,7.121c0.832-11.896,1.665-23.791,2.497-35.688
	C1057.27,536.035,1057.36,535.748,1057.438,535.455z"/>
<path fill-rule="evenodd" clip-rule="evenodd" fill="#F0B31F" d="M562.242,523.326c10.4,4.896,20.8,9.795,31.201,14.689
	c0.297,0.139,0.613,0.238,0.919,0.355c0.086,0.229,0.14,0.467,0.161,0.713c1.061,12.717,2.122,25.436,3.183,38.152
	c-9.495-3.363-18.991-6.729-28.487-10.094c-0.188-0.266-0.367-0.533-0.541-0.807C566.533,551.998,564.387,537.662,562.242,523.326z"
	/>
<path fill-rule="evenodd" clip-rule="evenodd" fill="#AA1F36" d="M794.342,309.34c1.639,34.957,3.276,69.914,4.915,104.871
	c-10.65,2.852-21.332,5.596-31.932,8.625c-2.973,0.849-5.705,2.537-8.55,3.842c-0.181-0.125-0.368-0.238-0.563-0.338
	c-2.33-12.886-4.592-25.784-7.007-38.654c-3.979-21.198-8.057-42.378-12.093-63.565c0.114-0.224,0.203-0.457,0.266-0.698
	c17.014-4.563,34.024-9.14,51.049-13.665C791.681,309.425,793.035,309.47,794.342,309.34z"/>
<path fill-rule="evenodd" clip-rule="evenodd" fill="#AA1F36" d="M848.03,413c0.845-21.754,1.662-43.509,2.542-65.262
	c0.53-13.127,1.155-26.251,1.738-39.376c18.38,2.617,36.478,6.384,53.839,13.166c0,0.003,0.266,0.216,0.267,0.214
	c-0.343,1.102-0.801,2.184-1.014,3.312c-6.116,32.389-12.208,64.782-18.304,97.174c-1.245,0.074-2.563,0.452-3.723,0.173
	c-11.254-2.71-22.484-5.521-33.711-8.347C849.069,413.904,848.573,413.36,848.03,413z"/>
<path fill-rule="evenodd" clip-rule="evenodd" fill="#FEFCFB" d="M887.099,422.228c6.096-32.393,12.188-64.786,18.304-97.174
	c0.213-1.128,0.671-2.21,1.014-3.312c16.698,5.776,32.14,14.062,46.987,23.534c0.035,0.358,0.07,0.716,0.105,1.074
	c-2.413,7.241-4.864,14.469-7.23,21.725c-8.069,24.744-16.108,49.499-24.159,74.249c-11.615-6.121-23.229-12.242-34.846-18.364
	C887.215,423.381,887.156,422.805,887.099,422.228z"/>
<path fill-rule="evenodd" clip-rule="evenodd" fill="#AA2037" d="M922.119,442.323c8.051-24.75,16.09-49.504,24.159-74.249
	c2.366-7.256,4.817-14.484,7.23-21.725c5.359,3.556,10.988,6.772,16.011,10.754c6.236,4.943,12.025,10.46,17.877,15.87
	c1.264,1.169,1.972,2.939,2.935,4.433c-2.961,6.458-5.964,12.897-8.877,19.377c-10.292,22.895-20.553,45.804-30.826,68.708
	c-1.853-1.311-3.776-2.533-5.546-3.948c-7.595-6.071-15.144-12.199-22.709-18.307C922.302,442.929,922.217,442.624,922.119,442.323z
	"/>
<path fill-rule="evenodd" clip-rule="evenodd" fill="#FEFCFB" d="M739.113,324.121c4.036,21.187,8.114,42.367,12.093,63.565
	c2.415,12.87,4.677,25.768,7.007,38.654c-11.201,6.399-22.402,12.799-33.605,19.197c-2.135-6.269-4.268-12.536-6.404-18.803
	c-8.684-25.476-17.369-50.952-26.055-76.428c0.119-0.313,0.18-0.637,0.182-0.971C707.005,339.225,722.352,330.359,739.113,324.121z"
	/>
<path fill-rule="evenodd" clip-rule="evenodd" fill="#AA2037" d="M692.148,350.306c8.686,25.476,17.371,50.952,26.055,76.428
	c2.137,6.267,4.27,12.535,6.404,18.803c0.001,0.001-0.172,0.441-0.173,0.438c-8.519,7.505-17.034,15.013-25.552,22.521
	c-1.894-3.468-3.886-6.886-5.666-10.411c-12.76-25.271-25.476-50.563-38.205-75.848c0.059-0.297,0.086-0.596,0.082-0.899
	c7.276-6.743,14.366-13.704,21.897-20.149C681.699,357.159,687.074,353.907,692.148,350.306z"/>
<path fill-rule="evenodd" clip-rule="evenodd" fill="#FEFBFA" d="M950.628,465.492c10.273-22.904,20.534-45.813,30.826-68.708
	c2.913-6.48,5.916-12.919,8.877-19.377c0.341-0.122,0.682-0.244,1.022-0.366c9.617,11.759,19.233,23.519,28.851,35.278
	c-0.035,0.285-0.078,0.569-0.128,0.853c-5.587,8.596-11.256,17.142-16.746,25.8c-11.104,17.511-22.109,35.083-33.156,52.63
	c-6.6-8.196-13.199-16.394-19.8-24.591C950.459,466.505,950.543,465.998,950.628,465.492z"/>
<path fill-rule="evenodd" clip-rule="evenodd" fill="#BD4E53" d="M1054.67,572.006c7.081-2.383,14.147-4.807,21.25-7.121
	c2.358-0.77,4.81-1.252,7.219-1.867c-2.75,9.707-5.573,19.396-8.188,29.139c-0.538,2.004-0.303,4.213-0.424,6.328
	c-0.757,0.305-1.514,0.607-2.271,0.912c-1.768,0.334-3.6,0.475-5.29,1.039c-6.611,2.207-13.178,4.547-19.76,6.838
	c0.182-1.307,0.259-2.639,0.56-3.92c1.971-8.379,4.079-16.729,5.912-25.139c0.342-1.566-0.357-3.359-0.576-5.049
	C1053.624,572.779,1054.147,572.393,1054.67,572.006z"/>
<path fill-rule="evenodd" clip-rule="evenodd" fill="#FEFCFB" d="M655.012,382.237c12.729,25.285,25.445,50.577,38.205,75.848
	c1.78,3.525,3.772,6.943,5.666,10.411c-0.091,0.247-0.128,0.503-0.111,0.767c-6.534,8.655-13.067,17.311-19.602,25.965
	c-0.276-0.029-0.552-0.07-0.825-0.122c-1.421-2.036-2.86-4.06-4.259-6.11c-15.62-22.896-31.233-45.798-46.849-68.697
	c-0.034-0.359-0.068-0.718-0.103-1.077C636.427,406.893,645.719,394.565,655.012,382.237z"/>
<path fill-rule="evenodd" clip-rule="evenodd" fill="#BD4E53" d="M569.219,567.143c9.496,3.365,18.992,6.73,28.486,10.094
	c0.202,0.293,0.404,0.586,0.607,0.879c0.17,1.803,0.162,3.645,0.542,5.402c1.673,7.742,3.459,15.457,5.204,23.184
	c-8.135-2.064-16.27-4.131-24.404-6.195c-0.236,0.033-0.375-0.068-0.418-0.303C575.896,589.184,572.559,578.164,569.219,567.143z"/>
<path fill-rule="evenodd" clip-rule="evenodd" fill="#AA2037" d="M970.174,491.602c11.047-17.547,22.053-35.119,33.156-52.63
	c5.49-8.659,11.159-17.204,16.746-25.8c6.694,12.455,13.39,24.91,20.083,37.368c-0.001,0.003,0.095,0.391,0.095,0.391
	c-1.956,1.716-4.152,3.226-5.832,5.18c-16.983,19.753-33.882,39.578-50.804,59.383c-3.522-6.233-6.999-12.494-10.602-18.682
	c-0.789-1.355-2.023-2.451-3.054-3.667C970.033,492.63,970.104,492.115,970.174,491.602z"/>
<path fill-rule="evenodd" clip-rule="evenodd" fill="#EFB320" d="M579.654,600.506c8.135,2.064,16.27,4.131,24.404,6.193
	c0.395,0.266,0.789,0.531,1.184,0.797c0.361,0.254,0.724,0.508,1.085,0.762l-0.102-0.049c0.251,1.551,0.224,3.215,0.8,4.633
	c3.842,9.463,7.814,18.873,11.744,28.299c-7.729-2.754-15.457-5.508-23.184-8.264c-0.433-0.248-0.867-0.498-1.301-0.748
	C589.408,621.588,584.531,611.047,579.654,600.506z"/>
<path fill-rule="evenodd" clip-rule="evenodd" fill="#FEFBFA" d="M983.618,515.492c16.922-19.805,33.82-39.63,50.804-59.383
	c1.68-1.954,3.876-3.464,5.832-5.18c4.11,13.757,8.222,27.515,12.333,41.271c-0.164,0.326-0.328,0.652-0.492,0.978
	c-10.025,7.928-20.054,15.852-30.076,23.783c-9.887,7.823-19.769,15.655-29.652,23.481c-2.981-7.973-5.964-15.944-8.945-23.918
	C983.486,516.181,983.552,515.837,983.618,515.492z"/>
<path fill-rule="evenodd" clip-rule="evenodd" fill="#EFB320" d="M1047.205,607.273c6.583-2.291,13.149-4.631,19.761-6.838
	c1.69-0.564,3.522-0.705,5.29-1.039c-4.066,9.252-8.133,18.502-12.2,27.754c-0.205,0.113-0.418,0.213-0.637,0.295
	c-6.058,2.213-12.101,4.473-18.186,6.611c-1.855,0.652-3.829,0.969-5.747,1.436c3.521-9.043,7.04-18.082,10.56-27.123
	C1046.433,608.004,1046.819,607.639,1047.205,607.273z"/>
<path fill-rule="evenodd" clip-rule="evenodd" fill="#FEFAF8" d="M1046.046,608.369c-3.52,9.041-7.039,18.08-10.56,27.123
	c-0.817,0.525-1.635,1.049-2.45,1.57c-13.749,3.689-27.498,7.379-41.247,11.068c2-9.23,3.998-18.463,5.997-27.695
	c0.574-0.311,1.147-0.619,1.721-0.93c1.292-0.246,2.599-0.436,3.875-0.746C1017.605,615.307,1031.825,611.836,1046.046,608.369z"/>
<path fill-rule="evenodd" clip-rule="evenodd" fill="#FEFAF8" d="M618.77,641.141c-3.93-9.426-7.902-18.836-11.744-28.299
	c-0.576-1.418-0.549-3.082-0.8-4.633c0.65,0.025,1.357-0.107,1.943,0.1c15.335,5.445,30.657,10.926,45.981,16.4
	c0.227,0.326,0.453,0.652,0.674,0.973c1.595,7.012,3.216,14.023,4.774,21.051c0.335,1.51,0.443,3.072,0.655,4.609
	c-13.244-3.107-26.49-6.213-39.735-9.32C619.936,641.727,619.352,641.434,618.77,641.141z"/>
<path fill-rule="evenodd" clip-rule="evenodd" fill="#FEFAF8" d="M660.184,651.273c0.337,0.291,0.674,0.582,1.011,0.873
	C660.857,651.855,660.521,651.564,660.184,651.273z"/>
<path fill-rule="evenodd" clip-rule="evenodd" fill="#AA2037" d="M627.237,420.298c15.615,22.899,31.229,45.801,46.849,68.697
	c1.398,2.051,2.838,4.074,4.259,6.11c-2.601,5.514-5.197,11.03-7.806,16.541c-1.207,2.551-2.439,5.09-3.663,7.634
	c-0.003,0-0.14,0.197-0.142,0.196c-9.27-9.689-18.52-19.397-27.813-29.063c-10.192-10.601-20.426-21.164-30.641-31.744
	c-0.074-0.438-0.148-0.878-0.223-1.317c3.971-8.479,7.785-17.034,11.977-25.401C622.072,427.884,624.814,424.171,627.237,420.298z"
	/>
<path fill-rule="evenodd" clip-rule="evenodd" fill="#FEFBFA" d="M608.281,458.669c10.215,10.58,20.448,21.144,30.641,31.744
	c9.293,9.666,18.543,19.374,27.813,29.063c-3.114,8.305-6.23,16.611-9.346,24.916c-2.105-1.604-4.234-3.176-6.313-4.813
	c-17.537-13.809-35.064-27.63-52.596-41.448c-0.158-0.333-0.316-0.666-0.475-1C601.431,484.312,604.855,471.49,608.281,458.669z"/>
<path fill-rule="evenodd" clip-rule="evenodd" fill="#AA2037" d="M598.48,498.132c17.531,13.818,35.059,27.64,52.596,41.448
	c2.078,1.637,4.207,3.209,6.313,4.813c0.268,0.342,0.536,0.684,0.804,1.025c-1.674,7.357-3.349,14.713-5.022,22.07
	c-7.76-3.982-15.442-8.127-23.301-11.906c-11.717-5.635-23.557-11.012-35.346-16.498c-0.021-0.246-0.075-0.484-0.161-0.713
	c1.019-12.868,2.025-25.739,3.095-38.605C597.504,499.196,598.126,498.676,598.48,498.132z"/>
<path fill-rule="evenodd" clip-rule="evenodd" fill="#AA2037" d="M992.366,540.443c9.884-7.826,19.766-15.658,29.652-23.481
	c10.022-7.932,20.051-15.855,30.076-23.783c1.381,7.193,3.113,14.342,4.041,21.593c0.875,6.839,0.901,13.785,1.302,20.686
	c-0.077,0.291-0.168,0.578-0.271,0.861c-0.751,0.307-1.536,0.547-2.247,0.926c-18.875,10.059-37.741,20.133-56.609,30.203
	c-1.99-8.781-3.98-17.563-5.97-26.346C992.358,540.881,992.366,540.662,992.366,540.443z"/>
<path fill-rule="evenodd" clip-rule="evenodd" fill="#FEFAF8" d="M998.311,567.447c18.868-10.07,37.734-20.145,56.609-30.203
	c0.711-0.379,1.496-0.619,2.247-0.926c-0.832,11.896-1.665,23.791-2.497,35.688c-0.522,0.387-1.046,0.773-1.568,1.16
	c-0.781,0.227-1.593,0.379-2.34,0.691c-17.014,7.086-34.021,14.189-51.028,21.289c-0.53-8.99-1.061-17.98-1.592-26.971
	C998.296,567.955,998.353,567.713,998.311,567.447z"/>
<path fill-rule="evenodd" clip-rule="evenodd" fill="#AA2037" d="M999.733,595.146c17.008-7.1,34.015-14.203,51.028-21.289
	c0.747-0.313,1.559-0.465,2.34-0.691c0.219,1.689,0.918,3.482,0.576,5.049c-1.833,8.41-3.941,16.76-5.912,25.139
	c-0.301,1.281-0.378,2.613-0.56,3.92c-0.387,0.365-0.773,0.73-1.16,1.096c-14.221,3.467-28.44,6.938-42.664,10.391
	c-1.276,0.311-2.583,0.5-3.875,0.746c-0.375-2.193-1.078-4.389-1.061-6.58c0.045-5.613,0.41-11.225,0.647-16.836
	C999.306,595.775,999.52,595.461,999.733,595.146z"/>
<path fill-rule="evenodd" clip-rule="evenodd" fill="#FEFAF8" d="M594.523,539.084c11.789,5.486,23.629,10.863,35.346,16.498
	c7.858,3.779,15.541,7.924,23.301,11.906c-0.049,0.314,0.025,0.6,0.221,0.852c-0.516,9.939-1.031,19.879-1.547,29.818
	c-17.844-6.682-35.688-13.361-53.531-20.043c-0.203-0.293-0.405-0.586-0.607-0.879C596.646,564.52,595.584,551.801,594.523,539.084z
	"/>
<path fill-rule="evenodd" clip-rule="evenodd" fill="#AA2038" d="M598.313,578.115c17.844,6.682,35.688,13.361,53.531,20.043
	c0.186,0.295,0.37,0.588,0.556,0.883c0.584,8.557,1.168,17.111,1.751,25.668c-15.324-5.475-30.646-10.955-45.981-16.4
	c-0.586-0.207-1.293-0.074-1.943-0.1l0.102,0.049c-0.361-0.254-0.723-0.508-1.085-0.762c-0.395-0.266-0.789-0.531-1.184-0.797
	c-1.745-7.725-3.531-15.439-5.204-23.182C598.475,581.76,598.482,579.918,598.313,578.115z"/>
<path fill-rule="evenodd" clip-rule="evenodd" fill="#FEFAF8" d="M605.242,607.496c0.362,0.254,0.724,0.508,1.085,0.762
	C605.966,608.004,605.604,607.75,605.242,607.496z"/>
<g>
	<path fill-rule="evenodd" clip-rule="evenodd" fill="#27235D" d="M926.71,1130.247c5.054,0,10.11-0.053,15.167,0.007
		c24.485,0.29,38.507,11.443,44.553,35.188c4.504,17.683,3.331,35.192-1.935,52.41c-2.201,7.195-5.042,14.396-8.836,20.864
		c-8.554,14.576-21.045,22.807-38.744,21.777c-9.088-0.527-18.222-0.202-27.331-0.373c-5.102-0.095-5.851-2.136-3.58-6.767
		c2.121-4.323,4.201-9.224,4.27-13.9c0.439-29.864,0.397-59.738,0.279-89.607c-0.015-3.883-0.784-8.018-2.327-11.546
		c-0.983-2.253-4.034-3.604-6.156-5.359c3.162-0.499,6.309-1.279,9.487-1.433c5.042-0.242,10.102-0.063,15.153-0.063
		C926.71,1131.045,926.71,1130.645,926.71,1130.247z M921.843,1222.757c0.107,0,0.217,0,0.324,0c0,6.572,0.124,13.148-0.039,19.716
		c-0.14,5.672,2.514,7.925,8.058,8.624c20.062,2.53,34.472-5.712,41.335-25.249c7.047-20.052,7.879-40.646,1.89-61.131
		c-6.267-21.425-22.396-30.778-44.41-26.681c-3.972,0.738-6.682,2.159-6.729,6.539c-0.14,13.146-0.234,26.29-0.333,39.435
		c-0.029,4.309,2.169,6.558,6.454,6.536c5.048-0.023,10.146,0.161,15.12-0.512c2.112-0.287,4.566-2.128,5.778-3.976
		c1.578-2.401,2.071-5.514,3.031-8.319c0.275,3.498,0.736,6.992,0.793,10.494c0.109,7.077,0.063,14.157-0.096,21.233
		c-0.021,1.038-0.989,2.058-1.521,3.085c-0.422-0.861-0.954-1.688-1.248-2.589c-3.699-11.337-5.987-13.007-17.545-12.73
		c-9.056,0.219-10.494,1.501-10.827,10.356C921.688,1212.639,921.843,1217.701,921.843,1222.757z"/>
	<path fill-rule="evenodd" clip-rule="evenodd" fill="#27235D" d="M602.808,1129.988c6.574,0,13.161-0.277,19.719,0.055
		c16.115,0.819,28.385,8.419,34.345,23.376c12.963,32.528,8.257,63.572-11.228,92.128c-6.811,9.979-17.437,15.105-30.079,14.863
		c-10.113-0.195-20.234-0.019-30.346-0.296c-6.508-0.179-6.852-1.34-4.429-7.104c1.878-4.468,4.07-9.271,4.139-13.953
		c0.438-29.838,0.406-59.683,0.295-89.525c-0.016-3.886-0.775-8.026-2.317-11.558c-0.988-2.264-4.044-3.626-6.173-5.393
		c3.635-0.692,7.246-1.736,10.911-1.987c5.033-0.345,10.106-0.087,15.163-0.087C602.808,1130.334,602.808,1130.162,602.808,1129.988
		z M596.778,1193.115c-0.008,0-0.014,0-0.021,0c0,15.645-0.198,31.292,0.076,46.932c0.16,9.114,1.538,10.171,10.557,10.898
		c18.272,1.472,31.693-6.143,38.107-23.411c7.939-21.376,8.983-43.396,1.8-65.276c-6.378-19.419-20.571-27.484-41.118-24.967
		c-6.829,0.837-9.701,3.291-9.52,10.408C597.046,1162.83,596.778,1177.976,596.778,1193.115z"/>
	<path fill-rule="evenodd" clip-rule="evenodd" fill="#27235D" d="M1520.877,1130.784c7.068,0,14.185-0.517,21.193,0.128
		c9.012,0.829,14.522,6.158,16.653,15.125c3.021,12.715,1.052,24.036-8.424,33.563c-2.059,2.071-3.992,4.264-5.986,6.401
		c2.642,1.434,5.333,2.785,7.909,4.329c1.714,1.027,3.661,2.029,4.828,3.558c10.827,14.161,8.724,29.701,3.167,44.73
		c-4.854,13.134-14.109,22.122-29.527,21.896c-8.09-0.119-16.184-0.102-24.268-0.359c-4.053-0.13-4.777-1.853-3.177-5.885
		c1.97-4.971,3.765-10.411,3.836-15.673c0.39-28.818,0.321-57.646,0.181-86.47c-0.032-6.758,1.742-14.747-7.873-17.33
		c0.592-1.353,1.129-3.853,1.779-3.881c6.561-0.291,13.136-0.177,19.708-0.177
		C1520.877,1130.755,1520.877,1130.77,1520.877,1130.784z M1553.465,1219.383c-1.138-19.193-8.955-28.7-24.735-29.074
		c-8.602-0.205-9.92,0.689-10.063,9.056c-0.232,13.68-0.179,27.367,0.074,41.045c0.184,10.01,1.91,11.254,11.543,11.095
		c8.602-0.143,14.828-4.227,17.895-11.786C1550.788,1233.283,1551.765,1226.187,1553.465,1219.383z M1528.492,1137.131
		c-7.576,0.239-9.439,1.903-9.707,10.078c-0.309,9.607,0.075,19.238-0.261,28.844c-0.244,7.03,3.422,8.462,9.445,8.226
		c15.164-0.593,24.538-15.277,20.305-32.137C1545.665,1141.757,1539.126,1136.795,1528.492,1137.131z"/>
	<path fill-rule="evenodd" clip-rule="evenodd" fill="#27235D" d="M1251.171,1195.23c0,14.681,0.074,29.362-0.033,44.041
		c-0.05,6.899,0.042,13.422,8.932,15.043c0.975,0.179,2.332,2.08,2.262,3.09c-0.074,1.005-1.706,2.682-2.695,2.712
		c-9.095,0.272-18.201,0.332-27.299,0.221c-1.236-0.015-3.1-1.077-3.488-2.104c-0.339-0.892,0.823-3.379,1.616-3.52
		c9.559-1.706,9.669-8.753,9.659-16.143c-0.041-29.36,0.068-58.722,0.01-88.083c-0.013-6.551,0.504-13.621-8.441-15.483
		c-0.5-0.104-1.174-1.553-1.002-2.159c0.223-0.784,1.219-1.931,1.875-1.927c15.123,0.076,30.256-0.025,45.357,0.598
		c8.545,0.352,13.373,5.974,16.238,13.809c5.895,16.11,0.787,34.45-14.019,44.033c-6.094,3.946-7.348,6.601-3.743,12.89
		c9.777,17.06,18.929,34.479,28.486,51.666c1.932,3.473,1.792,5.873-2.409,6.335c-6.022,0.661-11.566,1.271-15.04-6.358
		c-8.791-19.304-18.433-38.224-27.955-57.186c-2.314-4.614-1.12-5.555,3.648-6.674c19.396-4.552,28.32-26.832,18.133-44.062
		c-3.375-5.711-8.459-8.669-14.772-9.454c-10.64-1.324-14.775,2.377-15.222,13.156c-0.041,1.01-0.018,2.024-0.018,3.036
		c-0.003,14.176-0.003,28.35-0.003,42.523C1251.225,1195.23,1251.198,1195.23,1251.171,1195.23z"/>
	<path fill-rule="evenodd" clip-rule="evenodd" fill="#27235D" d="M110.215,1201.267c0,12.661,0.062,25.324-0.026,37.985
		c-0.043,6.275-0.012,12.301,7.37,14.993c0.878,0.32,1.759,2.554,1.479,3.586c-0.276,1.023-1.973,2.258-3.126,2.347
		c-4.534,0.347-9.116,0.538-13.647,0.253c-2.233-0.14-4.393-1.442-6.586-2.218c1.314-1.79,2.838-3.466,3.896-5.396
		c1.804-3.289,4.685-6.717,4.738-10.123c0.503-31.901,0.506-63.81,0.637-95.717c0.021-4.79-1.029-8.945-5.874-11.392
		c-1.345-0.678-2.066-2.585-3.073-3.928c1.322-0.487,2.614-1.285,3.969-1.414c13.26-1.271,14.224-0.507,21.062,11.935
		c14.379,26.16,28.937,52.223,43.45,78.308c1.716,3.084,3.532,6.121,5.496,9.051c0.465,0.693,1.74,1.218,2.587,1.147
		c0.525-0.044,1.016-1.32,1.386-2.107c0.202-0.431,0.16-0.997,0.157-1.501c-0.09-27.349-0.152-54.697-0.325-82.045
		c-0.026-4.215-1.111-7.929-5.898-9.534c-1.363-0.456-2.242-2.354-3.343-3.591c1.307-0.595,2.592-1.633,3.926-1.698
		c4.04-0.199,8.104-0.138,12.147,0.054c2.471,0.116,4.919,0.656,7.378,1.007c-1.838,1.761-4.358,3.203-5.36,5.354
		c-1.622,3.491-3.087,7.429-3.158,11.205c-0.399,21.267-0.402,42.54-0.457,63.812c-0.037,14.182,0.139,28.363,0.006,42.543
		c-0.016,1.682-1.094,4.453-2.208,4.751c-1.451,0.389-4.051-0.703-5.067-2.006c-3.088-3.965-5.917-8.19-8.377-12.577
		c-14.355-25.595-28.578-51.267-42.843-76.914c-1.72-3.093-3.298-6.276-5.199-9.255c-0.741-1.16-2.192-1.866-3.32-2.779
		c-0.641,1.613-1.739,3.199-1.832,4.843c-0.258,4.544-0.1,9.112-0.101,13.67c-0.002,9.117,0,18.234,0,27.352
		C110.123,1201.267,110.169,1201.267,110.215,1201.267z"/>
	<path fill-rule="evenodd" clip-rule="evenodd" fill="#27235D" d="M773.946,1129.899c5.064,0,10.13-0.051,15.194,0.009
		c24.755,0.288,39.927,12.538,44.718,36.923c4.412,22.463,1.908,44.511-7.268,65.39c-8.222,18.705-21.966,29.966-43.829,28.501
		c-8.581-0.574-17.222-0.149-25.829-0.431c-6.24-0.205-6.734-1.576-3.978-7.454c1.869-3.983,4.517-8.195,4.579-12.337
		c0.46-30.899,0.488-61.811,0.277-92.713c-0.026-3.704-1.897-7.606-3.691-11.007c-1.098-2.08-3.68-3.375-5.595-5.022
		c2.901-0.436,5.794-1.145,8.708-1.25c5.563-0.2,11.141-0.058,16.713-0.058C773.946,1130.268,773.946,1130.083,773.946,1129.899z
		 M768.388,1193.276c-0.048,0-0.096-0.001-0.145-0.001c0,14.661-0.193,29.325,0.06,43.981c0.217,12.526,1.565,13.603,14.256,13.755
		c17.441,0.213,28.897-6.821,35.046-23.492c7.906-21.438,8.636-43.573,1.759-65.416c-6.128-19.469-21.02-27.701-41.199-24.865
		c-6.739,0.946-9.921,3.592-9.835,10.541C768.517,1162.942,768.388,1178.11,768.388,1193.276z"/>
	<path fill-rule="evenodd" clip-rule="evenodd" fill="#27235D" d="M1336.372,1130.336c6.574,0,13.156-0.202,19.723,0.038
		c19.476,0.715,32.088,10.668,38.401,28.947c6.516,18.866,6.142,37.974,0.366,56.704c-3.078,9.987-7.557,19.877-13.201,28.655
		c-6.923,10.765-17.75,16.229-31.008,15.94c-10.125-0.22-20.254-0.232-30.383-0.372c-4.691-0.063-7.287-2.569-4.061-6.474
		c5.107-6.182,4.652-13.143,4.682-20.164c0.113-26.841,0.229-53.684,0.093-80.525c-0.036-7.249,2.011-15.938-8.821-18.213
		c-0.47-0.099-1.141-1.764-0.88-2.208c0.431-0.738,1.539-1.506,2.371-1.52c7.57-0.113,15.144-0.066,22.718-0.066
		C1336.372,1130.832,1336.372,1130.584,1336.372,1130.336z M1332.141,1195.271c-0.106,0-0.214,0-0.321,0.001
		c0,14.692-0.428,29.403,0.141,44.074c0.424,11.04,1.56,11.537,12.841,11.89c18.519,0.576,30.87-7.489,36.878-25.435
		c6.572-19.642,7.428-39.845,2.012-59.89c-5.996-22.197-20.831-31.229-43.557-28.034c-5.648,0.793-8.031,3.281-8.014,8.768
		C1332.177,1162.854,1332.141,1179.062,1332.141,1195.271z"/>
	<path fill-rule="evenodd" clip-rule="evenodd" fill="#27235D" d="M415.126,1194.899c0,13.674-0.064,27.351,0.025,41.025
		c0.05,7.602-0.679,15.679,9.407,18.302c0.826,0.214,1.79,2.495,1.534,3.531c-0.255,1.036-1.943,2.408-3.035,2.437
		c-8.597,0.219-17.204,0.238-25.803,0.065c-1.129-0.022-3.286-1.818-3.16-2.21c0.521-1.617,1.459-3.943,2.747-4.328
		c7.487-2.243,8.305-7.927,8.294-14.376c-0.047-30.389,0.096-60.78-0.188-91.167c-0.034-3.724-1.661-7.753-3.588-11.03
		c-1.417-2.412-4.524-3.829-6.881-5.69c3.424-0.413,6.843-1.113,10.272-1.188c10.633-0.233,21.295-0.729,31.898-0.196
		c15.516,0.78,22.687,8.394,23.64,24.032c0.926,15.179-2.908,28.239-17.32,35.963c-4.61,2.471-5.57,5.479-3.017,9.788
		c10.532,17.759,16.307,38.171,30.18,54.118c0.928,1.07,0.391,5.364-0.563,5.809c-6.729,3.144-14.308,0.257-17.506-6.233
		c-9.383-19.046-18.631-38.161-28.13-57.149c-2.155-4.309-1.585-5.408,3.394-6.614c19.544-4.736,28.353-26.66,18.37-44.196
		c-3.311-5.817-8.393-9.013-14.695-9.44c-9.287-0.63-16.626,2.044-15.631,13.168c0.089,1.002-0.068,2.023-0.068,3.037
		c-0.006,14.181-0.003,28.362-0.003,42.544C415.241,1194.899,415.183,1194.899,415.126,1194.899z"/>
	<path fill-rule="evenodd" clip-rule="evenodd" fill="#27235D" d="M1138.656,1196.097c-0.146-19.249,2.886-35.963,13.563-50.53
		c7.963-10.86,18.32-17.884,32.166-16.858c7.398,0.548,12.407-1.756,16.686-7.318c1.18-1.534,3.069-2.616,4.813-3.58
		c0.687-0.379,2.431-0.188,2.706,0.302c0.627,1.108,1.275,2.919,0.776,3.802c-0.96,1.697-2.683,2.977-4.14,4.381
		c-2.751,2.654-2.885,5.059,0.503,7.313c17.396,11.58,22.26,29.556,23.728,48.663c1.711,22.244-2.205,43.388-15.705,61.989
		c-17.364,23.92-54.236,23.167-67.377-8.332C1140.858,1222.706,1138.054,1208.857,1138.656,1196.097z M1148.583,1187.763
		c0.449,0.169,0.897,0.337,1.35,0.506c0.751,7.521,1.104,15.11,2.379,22.541c1.105,6.434,2.736,12.886,5.049,18.984
		c6.001,15.825,17.414,24.83,29.646,24.13c12.208-0.699,22.679-10.808,27.053-27.143c4.632-17.309,5.535-34.976,1.661-52.513
		c-1.828-8.271-4.448-16.648-8.361-24.11c-5.256-10.023-14.205-15.504-26.063-15.057c-12.081,0.455-20.32,7.205-24.097,17.775
		C1153.191,1164.099,1151.364,1176.101,1148.583,1187.763z"/>
	<path fill-rule="evenodd" clip-rule="evenodd" fill="#27235D" d="M1498.147,1192.874c0.55,18.252-3.803,36.612-16.354,52.428
		c-6.497,8.189-14.555,13.92-25.311,15.152c-17.512,2.006-31.033-4.219-38.779-20.287c-13.409-27.814-14.381-56.576-2.098-85.049
		c5.582-12.942,14.933-22.986,29.693-25.86c19.945-3.884,35.848,4.057,45.349,22.251
		C1496.181,1162.102,1498.204,1172.828,1498.147,1192.874z M1487.437,1195.874c-0.52-0.056-1.039-0.109-1.56-0.164
		c0-4.543,0.185-9.096-0.036-13.63c-0.573-11.8-3.446-23.054-9.988-32.956c-13.136-19.877-37.692-18.74-49.024,2.133
		c-1.676,3.086-3.149,6.384-4.067,9.761c-6.596,24.249-4.563,48.034,4.751,71.186c1.842,4.583,4.712,9.032,8.049,12.684
		c12.03,13.167,29.991,11.981,40.194-2.724c3.102-4.471,5.686-9.752,6.836-15.025
		C1484.831,1216.853,1485.889,1206.31,1487.437,1195.874z"/>
	<path fill-rule="evenodd" clip-rule="evenodd" fill="#27235D" d="M10.269,1184.477c0-12.663,0.217-25.334-0.148-37.986
		c-0.094-3.234-1.715-6.575-3.218-9.573c-1.379-2.748-8.567,0.38-6.547-5.372c0.491-1.399,6.47-1.077,9.936-1.183
		c6.071-0.184,12.155-0.188,18.227-0.026c1.283,0.034,2.539,1.111,3.808,1.707c-0.721,1.035-1.328,2.861-2.177,2.981
		c-7.292,1.028-8.497,5.945-8.466,12.1c0.131,25.833-0.458,51.685,0.388,77.492c0.659,20.167,16.34,30.305,34.544,23.761
		c7.162-2.575,12.393-7.236,14.205-14.595c1.56-6.33,2.673-12.929,2.784-19.43c0.352-20.764,0.181-41.535,0.138-62.304
		c-0.015-7.499,1.413-15.906-9.707-17.298c-0.499-0.063-1.243-1.556-1.121-2.252c0.128-0.731,1.138-1.838,1.801-1.866
		c5.551-0.23,11.116-0.423,16.666-0.252c2.303,0.071,4.579,1.056,6.865,1.625c-1.593,1.377-3.793,2.452-4.654,4.192
		c-1.876,3.792-4.216,7.884-4.349,11.92c-0.56,17.207-0.199,34.441-0.551,51.658c-0.205,10.109-0.727,20.245-1.787,30.298
		c-2.514,23.805-20.669,35.034-45.152,28.934c-9.966-2.484-16.655-9.692-18.705-20.022c-1.373-6.919-2.148-14.028-2.394-21.081
		c-0.386-11.13-0.103-22.283-0.103-33.428C10.457,1184.477,10.364,1184.477,10.269,1184.477z"/>
	<path fill-rule="evenodd" clip-rule="evenodd" fill="#27235D" d="M353.656,1130.433c7.59,0,15.188-0.234,22.767,0.057
		c10.517,0.402,10.757,0.828,9.667,11.809c-0.301,3.014-0.78,6.027-1.459,8.976c-0.313,1.364-1.303,2.571-1.986,3.85
		c-0.356-1.368-0.804-2.722-1.057-4.111c-2.175-11.951-2.307-12.089-13.926-13.225c-21.842-2.132-22.657-1.381-22.829,21.087
		c-0.049,6.578-0.248,13.16-0.062,19.732c0.255,9.063,1.366,10.297,10.632,10.624c4.491,0.158,9.123-0.364,13.49-1.413
		c2.051-0.493,4.238-2.643,5.267-4.614c1.327-2.543,1.554-5.661,2.255-8.532c0.47,3.214,1.203,6.415,1.345,9.642
		c0.222,5.05,0.242,10.129-0.031,15.174c-0.224,4.142-1.001,8.253-1.533,12.378c-0.762-3.36-0.909-7.054-2.485-9.978
		c-1.252-2.324-4.011-4.644-6.532-5.294c-3.825-0.989-8.032-0.763-12.063-0.641c-9.932,0.302-10.279,0.521-10.474,10.351
		c-0.231,11.633,0.137,23.278-0.102,34.913c-0.134,6.501,2.963,9.203,9.054,9.34c3.035,0.067,6.068,0.196,9.104,0.207
		c17.441,0.061,17.469-0.002,22.109-17.055c0.281-1.035,1.681-1.768,2.56-2.642c0.25,0.909,0.561,1.809,0.726,2.733
		c0.084,0.478-0.13,1-0.14,1.504c-0.571,25.696-0.571,25.68-26.36,25.427c-11.13-0.108-22.265-0.012-33.389-0.326
		c-1.443-0.04-3.093-1.795-4.09-3.162c-0.295-0.406,1.067-2.882,2.086-3.245c5.796-2.074,7.145-6.503,7.167-11.971
		c0.128-30.847,0.407-61.692,0.395-92.538c-0.001-6.506,0.164-13.692-8.976-15.12c-0.345-0.056-0.848-1.741-0.581-2.371
		c0.315-0.741,1.386-1.635,2.14-1.644c9.104-0.111,18.209-0.072,27.313-0.072C353.656,1130.331,353.656,1130.382,353.656,1130.433z"
		/>
	<path fill-rule="evenodd" clip-rule="evenodd" fill="#27235D" d="M694.02,1214.757c-1.519,0-3.035-0.018-4.552,0.003
		c-12.515,0.168-12.529,0.166-16.234,12.748c-1.141,3.874-2.14,7.79-3.261,11.67c-1.821,6.299-2.627,12.011,5.79,14.372
		c1.195,0.336,1.74,2.981,2.587,4.558c-1.662,0.801-3.267,2.083-5.002,2.297c-2.986,0.366-6.071,0.266-9.084,0.001
		c-3.906-0.343-9.892,0.296-11.247-1.85c-3.169-5.009,4.142-5.441,5.889-8.545c2.198-3.902,3.86-8.2,5.154-12.507
		c9.736-32.392,19.328-64.827,28.951-97.252c0.719-2.42,1.112-4.968,2.121-7.251c0.487-1.105,1.982-1.881,3.186-2.462
		c0.262-0.126,1.555,1.105,1.819,1.897c1.282,3.83,2.407,7.713,3.528,11.594c8.978,31.041,17.916,62.094,26.933,93.123
		c1.805,6.211,2.76,12.9,9.614,16.359c1.184,0.597,1.667,3.31,1.701,5.061c0.012,0.592-2.363,1.738-3.662,1.76
		c-8.076,0.132-16.158,0.112-24.229-0.131c-1.079-0.033-2.78-1.488-2.979-2.521c-0.211-1.089,0.81-3.352,1.674-3.568
		c9.995-2.495,9.101-8.915,6.238-16.257c-0.729-1.871-1.092-3.886-1.613-5.838C712.079,1212.335,714.499,1214.99,694.02,1214.757z
		 M694.527,1208.376c2.013,0,4.03,0.08,6.04-0.014c9.185-0.425,9.615-0.822,7.311-9.563c-3.33-12.636-6.903-25.21-10.512-37.769
		c-0.326-1.136-1.673-1.978-2.545-2.957c-0.967,0.985-2.473,1.81-2.82,2.978c-3.288,11.078-6.432,22.199-9.511,33.336
		c-3.838,13.874-3.794,13.886,10.526,13.997C693.521,1208.39,694.024,1208.387,694.527,1208.376z"/>
	<path fill-rule="evenodd" clip-rule="evenodd" fill="#27235D" d="M1603.134,1215.036c-2.027,0-4.057-0.048-6.082,0.007
		c-10.797,0.293-10.871,0.278-13.869,10.052c-1.486,4.836-2.268,9.912-4.029,14.63c-2.525,6.757-2.279,11.825,5.781,14.159
		c1.1,0.318,2.701,2.796,2.506,3.042c-1.085,1.375-2.601,3.262-4.059,3.342c-6.059,0.332-12.152,0.199-18.22-0.062
		c-1.165-0.049-2.911-1.244-3.224-2.267c-0.327-1.074,0.368-3.332,1.26-3.773c7.371-3.651,8.59-10.927,10.592-17.626
		c9.273-31.025,18.406-62.093,27.59-93.145c1.008-3.398,1.869-6.855,3.15-10.149c0.41-1.061,1.868-1.878,3.03-2.384
		c0.339-0.147,1.673,1.049,1.937,1.833c1.281,3.842,2.371,7.745,3.494,11.638c8.974,31.123,17.97,62.241,26.881,93.382
		c1.814,6.345,3.304,12.51,9.582,16.54c3.781,2.428,1.922,5.694-1.893,5.931c-8.07,0.501-16.19,0.279-24.283,0.091
		c-1.085-0.025-2.805-1.438-3.014-2.459c-0.213-1.038,0.916-3.312,1.732-3.454c9.68-1.702,8.866-7.844,6.587-14.768
		c-0.633-1.918-1.055-3.905-1.604-5.854C1620.88,1212.102,1624.068,1215.376,1603.134,1215.036z M1604.916,1208.54
		c2.514,0,5.027-0.013,7.544,0.003c5.438,0.032,6.891-2.196,5.295-7.571c-3.857-12.989-7.188-26.137-10.854-39.185
		c-0.354-1.249-1.587-2.252-2.413-3.369c-1.153,1.298-2.909,2.412-3.36,3.92c-3.907,12.971-7.529,26.026-11.341,39.026
		c-1.655,5.644,1.123,7.253,6.079,7.191C1598.885,1208.519,1601.9,1208.549,1604.916,1208.54z"/>
	<path fill-rule="evenodd" clip-rule="evenodd" fill="#27235D" d="M248.009,1130.26c3.544,0,7.118-0.271,10.621,0.114
		c1.73,0.192,3.329,1.592,4.987,2.444c-1.392,1.001-2.653,2.524-4.198,2.907c-5.189,1.289-6.076,4.264-4.808,9.075
		c7.218,27.379,14.247,54.808,21.441,82.192c0.353,1.342,1.663,2.432,2.525,3.64c0.908-1.472,2.23-2.833,2.659-4.433
		c6.795-25.392,13.553-50.793,20.127-76.243c1.701-6.584,2.757-13.319-6.701-15.301c-0.456-0.096-1.031-1.661-0.828-2.319
		c0.229-0.746,1.248-1.725,1.969-1.762c4.543-0.241,9.108-0.461,13.644-0.239c2.264,0.11,4.48,1.168,6.719,1.796
		c-1.375,1.817-3.1,3.469-4.05,5.484c-1.706,3.628-3.284,7.384-4.331,11.245c-9.268,34.147-18.406,68.329-27.583,102.501
		c-0.523,1.948-0.778,4.026-1.647,5.805c-0.573,1.174-1.986,2.6-3.093,2.66c-1.073,0.06-2.807-1.254-3.24-2.36
		c-0.912-2.323-1.052-4.935-1.698-7.379c-8.794-33.236-17.555-66.483-26.509-99.679c-1.529-5.677-1.904-12.234-8.666-15.142
		c-0.916-0.394-1.235-2.172-1.831-3.308c1.285-0.549,2.548-1.487,3.862-1.57c3.531-0.22,7.084-0.074,10.629-0.074
		C248.009,1130.296,248.009,1130.278,248.009,1130.26z"/>
	<path fill-rule="evenodd" clip-rule="evenodd" fill="#27235D" d="M1056.623,1195.496c0.3-16.341,3.104-30.608,10.524-43.698
		c15.813-27.902,43.688-26.35,63.342-18.418c3.82,1.542,5.49,4.119,4.756,8.283c-0.876,4.983-1.503,10.01-2.412,14.986
		c-0.256,1.404-1.111,2.697-1.693,4.041c-0.396-1.337-1.183-2.693-1.12-4.008c0.46-9.525-2.371-17.607-12.099-20.385
		c-10.97-3.134-22.492-3.54-31.59,4.812c-4.682,4.295-8.824,10.044-11.088,15.95c-8.449,22.053-8.789,44.642-0.457,66.786
		c10.241,27.226,30.217,34.576,56.758,21.801c0.975-0.47,2.377-0.052,3.577-0.048c-0.259,1.453-0.013,3.429-0.871,4.261
		c-2.499,2.415-5.199,4.829-8.245,6.436c-18.635,9.815-41.447,4.696-54.52-12.238
		C1060.123,1229.339,1057.077,1212.069,1056.623,1195.496z"/>
	<path fill-rule="evenodd" clip-rule="evenodd" fill="#27235D" d="M526.784,1147.016c0,2.528,0.154,5.07-0.076,7.577
		c-0.092,1.006-1.029,1.934-1.582,2.896c-0.402-0.884-0.855-1.748-1.186-2.658c-0.166-0.459-0.066-1.007-0.162-1.5
		c-2.488-13.008-9.104-20.043-18.669-19.872c-8.695,0.154-15.78,7.234-18.54,19.194c-1.009,4.374-1.582,9.012-1.345,13.476
		c0.479,8.985,5.173,15.182,14.052,17.627c4.87,1.341,9.812,2.495,14.78,3.386c9.596,1.72,15.474,7.608,17.6,16.683
		c4.036,17.241,1.228,33.258-10.964,46.716c-9.495,10.483-24.803,13.02-37.584,7.189c-4.816-2.196-7.406-5.021-6.073-10.513
		c0.354-1.464,0.308-3.019,0.554-4.515c0.76-4.598,1.57-9.188,2.36-13.782c0.61,3.934,0.815,7.983,1.906,11.778
		c3.353,11.678,19.812,17.011,29.905,9.886c11.147-7.869,15.697-29.723,8.201-41.299c-1.801-2.781-4.905-5.094-7.918-6.613
		c-3.084-1.555-6.76-2.433-10.231-2.634c-16.172-0.94-25.68-11.916-25.782-31.499c-0.04-7.829,1.88-16.187,4.982-23.413
		c7.161-16.678,24.381-21.724,40.654-13.746C529.336,1135.139,526.937,1141.255,526.784,1147.016z"/>
	<path fill-rule="evenodd" clip-rule="evenodd" fill="#27235D" d="M211.38,1130.217c3.041,0,6.103-0.228,9.112,0.074
		c2.308,0.232,4.546,1.131,6.816,1.732c-1.716,1.266-3.261,2.967-5.179,3.71c-4.69,1.816-5.492,5.567-5.497,9.791
		c-0.038,32.424,0.008,64.849-0.088,97.271c-0.016,5.903,2.314,9.476,8.183,11.028c1.364,0.361,2.214,2.673,3.3,4.087
		c-1.601,0.9-3.183,2.537-4.803,2.576c-8.602,0.209-17.214,0.103-25.816-0.127c-1.262-0.033-2.488-1.303-3.731-1.999
		c0.943-1.513,1.663-4.113,2.867-4.36c8.987-1.847,8.595-8.645,8.598-15.319c0.014-29.385,0.027-58.77,0.01-88.153
		c-0.005-7.161,0.627-14.755-9.621-15.78c-0.492-0.049-1.279-1.562-1.149-2.243c0.146-0.77,1.16-1.933,1.827-1.953
		c5.052-0.164,10.113-0.09,15.172-0.09C211.38,1130.381,211.38,1130.299,211.38,1130.217z"/>
	<path fill-rule="evenodd" clip-rule="evenodd" fill="#27235D" d="M552.573,1130.3c4.049,0,8.108-0.174,12.136,0.112
		c1.126,0.078,2.157,1.511,3.231,2.321c-1.006,0.866-1.924,2.342-3.029,2.499c-6.624,0.949-7.729,5.441-7.722,11.005
		c0.034,31.89,0.105,63.78-0.09,95.668c-0.04,6.521,2.057,10.633,8.692,12.126c1.091,0.245,1.846,1.984,2.754,3.033
		c-1.354,1.141-2.684,3.231-4.068,3.269c-9.091,0.243-18.195,0.129-27.287-0.13c-1.035-0.029-2.711-1.594-2.844-2.608
		c-0.135-1.054,1.072-3.15,1.986-3.335c8.456-1.71,9.404-7.62,9.362-14.843c-0.173-29.864-0.056-59.731-0.054-89.6
		c0.002-6.676,0.547-13.639-8.832-14.885c-0.756-0.102-1.383-2.034-1.76-3.214c-0.062-0.187,1.512-1.288,2.347-1.309
		c5.056-0.126,10.117-0.063,15.177-0.063C552.573,1130.331,552.573,1130.315,552.573,1130.3z"/>
</g>
</svg>
